<svg xmlns="http://www.w3.org/2000/svg" xmlns:xlink="http://www.w3.org/1999/xlink" width="500" zoomAndPan="magnify" viewBox="0 0 375 374.999991" height="500" preserveAspectRatio="xMidYMid meet" version="1.0"><defs><g/><clipPath id="02bbe576f5"><path d="M 10.792969 1.195312 L 364 1.195312 L 364 374.695312 L 10.792969 374.695312 Z M 10.792969 1.195312 " clip-rule="nonzero"/></clipPath><clipPath id="87fad9decf"><path d="M 0 0 L 374.699219 0 L 374.699219 374.699219 L 0 374.699219 Z M 0 0 " clip-rule="nonzero"/></clipPath><clipPath id="e537cb5fdd"><path d="M 14.429688 14.429688 L 360.929688 14.429688 L 360.929688 360.929688 L 14.429688 360.929688 Z M 14.429688 14.429688 " clip-rule="nonzero"/></clipPath><clipPath id="30e7d4ac7a"><path d="M 43.335938 142.539062 L 331.335938 142.539062 L 331.335938 254.289062 L 43.335938 254.289062 Z M 43.335938 142.539062 " clip-rule="nonzero"/></clipPath><clipPath id="eee19d04e8"><path d="M 116 259 L 259 259 L 259 266.566406 L 116 266.566406 Z M 116 259 " clip-rule="nonzero"/></clipPath><clipPath id="06b09f815c"><path d="M 178 101.566406 L 196 101.566406 L 196 125 L 178 125 Z M 178 101.566406 " clip-rule="nonzero"/></clipPath><clipPath id="6c868fb15e"><path d="M 194 126 L 269.933594 126 L 269.933594 221 L 194 221 Z M 194 126 " clip-rule="nonzero"/></clipPath></defs><g clip-path="url(#02bbe576f5)"><path fill="#ffffff" d="M 187.378906 374.46875 C 90.277344 374.46875 10.792969 295.007812 10.792969 197.941406 L 10.792969 177.945312 C 10.792969 80.878906 90.277344 1.421875 187.378906 1.421875 C 284.480469 1.421875 363.96875 80.878906 363.96875 177.945312 L 363.96875 197.941406 C 364.042969 295.007812 284.554688 374.46875 187.378906 374.46875 Z M 187.378906 374.46875 " fill-opacity="1" fill-rule="nonzero"/></g><g clip-path="url(#87fad9decf)"><path fill="#8c6c19" d="M 187.351562 374.699219 C 137.332031 374.699219 90.230469 355.230469 54.886719 319.8125 C 19.46875 284.46875 0 237.371094 0 187.351562 C 0 137.332031 19.46875 90.230469 54.886719 54.886719 C 90.230469 19.46875 137.332031 0 187.351562 0 C 237.371094 0 284.46875 19.46875 319.8125 54.886719 C 355.230469 90.304688 374.699219 137.332031 374.699219 187.351562 C 374.699219 237.371094 355.230469 284.46875 319.8125 319.8125 C 284.46875 355.230469 237.371094 374.699219 187.351562 374.699219 Z M 187.351562 11.230469 C 140.324219 11.230469 96.070312 29.578125 62.824219 62.824219 C 29.578125 96.070312 11.230469 140.324219 11.230469 187.351562 C 11.230469 234.375 29.578125 278.628906 62.824219 311.875 C 96.070312 345.121094 140.324219 363.46875 187.351562 363.46875 C 234.375 363.46875 278.628906 345.121094 311.875 311.875 C 345.121094 278.628906 363.46875 234.375 363.46875 187.351562 C 363.46875 140.324219 345.121094 96.070312 311.875 62.824219 C 278.628906 29.578125 234.375 11.230469 187.351562 11.230469 Z M 187.351562 11.230469 " fill-opacity="1" fill-rule="nonzero"/></g><g clip-path="url(#e537cb5fdd)"><path fill="#112140" d="M 187.621094 360.929688 C 92.171875 360.929688 14.429688 283.1875 14.429688 187.621094 C 14.429688 92.054688 92.171875 14.429688 187.621094 14.429688 C 283.070312 14.429688 360.8125 92.171875 360.8125 187.621094 C 360.929688 283.1875 283.1875 360.929688 187.621094 360.929688 Z M 187.621094 17.359375 C 93.695312 17.359375 17.359375 93.695312 17.359375 187.621094 C 17.359375 281.542969 93.8125 357.996094 187.621094 357.996094 C 281.425781 357.996094 357.996094 281.542969 357.996094 187.621094 C 357.996094 93.695312 281.542969 17.359375 187.621094 17.359375 Z M 187.621094 17.359375 " fill-opacity="1" fill-rule="nonzero"/></g><g fill="#1a2e38" fill-opacity="1"><g transform="translate(75.960708, 139.981497)"><g><path d="M 0.765625 -2.53125 L -17.890625 -8.140625 L -16.296875 -13.46875 C -15.617188 -15.6875 -14.539062 -17.546875 -13.0625 -19.046875 C -12.28125 -19.859375 -11.414062 -20.515625 -10.46875 -21.015625 C -9.53125 -21.515625 -8.425781 -21.804688 -7.15625 -21.890625 C -5.894531 -21.972656 -4.566406 -21.804688 -3.171875 -21.390625 C -1.179688 -20.785156 0.347656 -19.78125 1.421875 -18.375 C 3.390625 -15.800781 3.757812 -12.472656 2.53125 -8.390625 Z M 1.40625 -8.109375 C 2.125 -10.503906 2 -12.632812 1.03125 -14.5 C 0.0625 -16.375 -1.789062 -17.722656 -4.53125 -18.546875 C -6.625 -19.171875 -8.59375 -19.132812 -10.4375 -18.4375 C -12.28125 -17.75 -13.722656 -16.566406 -14.765625 -14.890625 C -15.253906 -13.253906 -15.484375 -11.765625 -15.453125 -10.421875 L 0.375 -5.65625 C 0.726562 -6.195312 1.070312 -7.015625 1.40625 -8.109375 Z M 1.40625 -8.109375 "/></g></g></g><g fill="#1a2e38" fill-opacity="1"><g transform="translate(83.723829, 116.339637)"><g><path d="M 1.25 -2.328125 L -15.921875 -11.546875 L -10.328125 -21.953125 L -8.71875 -20.75 L -12.125 -16.359375 C -12.582031 -15.515625 -12.929688 -14.503906 -13.171875 -13.328125 L -6.875 -9.9375 L -3.796875 -15.6875 L -2.8125 -15.15625 L -5.890625 -9.40625 L 1.671875 -5.34375 L 5.1875 -13.828125 L 6.78125 -12.625 Z M 1.25 -2.328125 "/></g></g></g><g fill="#1a2e38" fill-opacity="1"><g transform="translate(93.988148, 98.221552)"><g><path d="M 1.640625 -2.078125 L -13.671875 -14.125 L -11.890625 -16.390625 L 2.171875 -5.328125 C 3.191406 -6.054688 3.925781 -6.707031 4.375 -7.28125 L 6.953125 -12.015625 L 8.28125 -10.515625 Z M 1.640625 -2.078125 "/></g></g></g><g fill="#1a2e38" fill-opacity="1"><g transform="translate(105.752617, 83.755213)"><g><path d="M 2.0625 -21.25 C 3.320312 -19.84375 3.765625 -18.316406 3.390625 -16.671875 C 3.015625 -15.023438 1.941406 -13.410156 0.171875 -11.828125 L -1.703125 -10.125 L 4.09375 -3.671875 L 1.96875 -1.765625 L -11.046875 -16.265625 L -6.34375 -20.5 C -4.875 -21.820312 -3.363281 -22.566406 -1.8125 -22.734375 C -0.269531 -22.898438 1.019531 -22.40625 2.0625 -21.25 Z M -2.28125 -10.765625 L -0.328125 -12.53125 C 0.347656 -13.132812 0.8125 -13.785156 1.0625 -14.484375 C 1.320312 -15.191406 1.378906 -15.851562 1.234375 -16.46875 C 0.972656 -17.539062 0.535156 -18.414062 -0.078125 -19.09375 C -0.390625 -19.4375 -0.84375 -19.765625 -1.4375 -20.078125 C -2.644531 -20.734375 -3.929688 -20.710938 -5.296875 -20.015625 C -6.335938 -19.066406 -7.203125 -18.0625 -7.890625 -17 Z M -2.28125 -10.765625 "/></g></g></g><g fill="#1a2e38" fill-opacity="1"><g transform="translate(120.918297, 70.416356)"><g><path d="M -0.21875 -11.109375 L 4.71875 -2.8125 L 2.265625 -1.34375 L -7.703125 -18.078125 L -5.25 -19.546875 L -0.796875 -12.0625 L 6.875 -16.625 L 2.421875 -24.109375 L 4.859375 -25.5625 L 14.828125 -8.828125 L 12.390625 -7.375 L 7.453125 -15.671875 Z M -0.21875 -11.109375 "/></g></g></g><g fill="#1a2e38" fill-opacity="1"><g transform="translate(142.201616, 58.710727)"><g><path d="M -2.15625 -20.09375 L 4.984375 -1.96875 L 2.453125 -0.96875 L -4.6875 -19.09375 Z M -2.15625 -20.09375 "/></g></g></g><g fill="#1a2e38" fill-opacity="1"><g transform="translate(153.724036, 54.03071)"><g><path d="M 17.125 -3.359375 L 16.640625 -3.25 L 0.640625 -16.296875 L 0.515625 -16.265625 L 3.84375 -0.828125 L 2.578125 -0.5625 L -1.53125 -19.609375 L 0.609375 -20.0625 L 14.546875 -8.59375 L 14.671875 -8.609375 L 11.6875 -22.453125 L 12.953125 -22.734375 Z M 17.125 -3.359375 "/></g></g></g><g fill="#1a2e38" fill-opacity="1"><g transform="translate(177.469152, 49.495139)"><g><path d="M 2.640625 -0.046875 L 2.34375 -19.53125 L 14.15625 -19.703125 L 13.890625 -17.71875 L 8.390625 -18.546875 C 7.429688 -18.535156 6.378906 -18.351562 5.234375 -18 L 5.34375 -10.84375 L 11.875 -10.953125 L 11.890625 -9.84375 L 5.359375 -9.734375 L 5.484375 -1.140625 L 14.59375 -2.1875 L 14.328125 -0.21875 Z M 2.640625 -0.046875 "/></g></g></g><g fill="#1a2e38" fill-opacity="1"><g transform="translate(198.529791, 49.837613)"><g/></g></g><g fill="#1a2e38" fill-opacity="1"><g transform="translate(210.375794, 51.418188)"><g><path d="M 8.953125 2.5 L 6.203125 1.734375 L 11.0625 -15.65625 C 10.457031 -15.988281 9.835938 -16.25 9.203125 -16.4375 L 5.140625 -16.625 L 5.53125 -18.6875 L 20.140625 -14.609375 L 19.421875 -12.640625 L 15.796875 -14.578125 C 15.160156 -14.765625 14.5 -14.867188 13.8125 -14.890625 Z M 8.953125 2.5 "/></g></g></g><g fill="#1a2e38" fill-opacity="1"><g transform="translate(229.452955, 56.883824)"><g><path d="M 19.265625 -12.4375 C 21.535156 -11.269531 23.03125 -9.5625 23.75 -7.3125 C 24.46875 -5.070312 24.148438 -2.625 22.796875 0.03125 C 21.921875 1.75 20.859375 3.097656 19.609375 4.078125 C 18.367188 5.054688 17.085938 5.65625 15.765625 5.875 C 13.203125 6.269531 10.789062 5.894531 8.53125 4.75 C 6.28125 3.601562 4.800781 1.898438 4.09375 -0.359375 C 3.394531 -2.628906 3.722656 -5.09375 5.078125 -7.75 C 5.773438 -9.125 6.601562 -10.265625 7.5625 -11.171875 C 8.53125 -12.078125 9.507812 -12.71875 10.5 -13.09375 C 11.5 -13.476562 12.539062 -13.691406 13.625 -13.734375 C 15.582031 -13.785156 17.460938 -13.351562 19.265625 -12.4375 Z M 6.515625 -0.453125 C 6.578125 0.546875 6.878906 1.453125 7.421875 2.265625 C 7.972656 3.085938 8.75 3.753906 9.75 4.265625 C 10.757812 4.785156 11.785156 4.988281 12.828125 4.875 C 13.867188 4.769531 14.820312 4.425781 15.6875 3.84375 C 17.414062 2.65625 18.765625 1.113281 19.734375 -0.78125 C 20.910156 -3.09375 21.398438 -5.195312 21.203125 -7.09375 C 20.984375 -9.207031 19.6875 -10.867188 17.3125 -12.078125 C 15.3125 -12.359375 13.5 -11.992188 11.875 -10.984375 C 10.257812 -9.972656 8.988281 -8.554688 8.0625 -6.734375 C 6.914062 -4.492188 6.398438 -2.398438 6.515625 -0.453125 Z M 6.515625 -0.453125 "/></g></g></g><g fill="#1a2e38" fill-opacity="1"><g transform="translate(251.724309, 68.837781)"><g><path d="M 25.578125 -4.234375 L 18.015625 5.015625 C 16.859375 6.421875 15.835938 7.359375 14.953125 7.828125 C 14.554688 8.023438 14.046875 8.207031 13.421875 8.375 C 12.796875 8.539062 12.1875 8.582031 11.59375 8.5 C 10.113281 8.257812 8.625 7.523438 7.125 6.296875 C 3.351562 3.210938 3.054688 -0.269531 6.234375 -4.15625 L 14.03125 -13.6875 L 16.359375 -11.78125 L 8.40625 -2.0625 C 8.050781 -1.613281 7.769531 -1.25 7.5625 -0.96875 C 7.351562 -0.6875 7.113281 -0.238281 6.84375 0.375 C 6.582031 1 6.453125 1.5625 6.453125 2.0625 C 6.460938 2.570312 6.632812 3.171875 6.96875 3.859375 C 7.300781 4.554688 7.84375 5.207031 8.59375 5.8125 C 11.425781 8.132812 14.085938 7.773438 16.578125 4.734375 L 24.578125 -5.0625 Z M 25.578125 -4.234375 "/></g></g></g><g fill="#1a2e38" fill-opacity="1"><g transform="translate(269.522372, 84.199343)"><g><path d="M 1.703125 2.015625 L 16.609375 -10.53125 L 18.46875 -8.3125 L 4.78125 3.203125 C 5.28125 4.347656 5.765625 5.195312 6.234375 5.75 L 10.34375 9.234375 L 8.625 10.25 Z M 1.703125 2.015625 "/></g></g></g><g fill="#1a2e38" fill-opacity="1"><g transform="translate(281.381459, 98.380443)"><g><path d="M 22.921875 0.4375 C 24.160156 2.664062 24.445312 4.914062 23.78125 7.1875 C 23.125 9.46875 21.492188 11.328125 18.890625 12.765625 C 17.203125 13.703125 15.566406 14.226562 13.984375 14.34375 C 12.410156 14.457031 11.015625 14.238281 9.796875 13.6875 C 7.441406 12.582031 5.648438 10.921875 4.421875 8.703125 C 3.191406 6.492188 2.914062 4.253906 3.59375 1.984375 C 4.28125 -0.285156 5.925781 -2.144531 8.53125 -3.59375 C 9.882812 -4.34375 11.210938 -4.828125 12.515625 -5.046875 C 13.816406 -5.265625 14.984375 -5.25 16.015625 -5 C 17.054688 -4.757812 18.039062 -4.351562 18.96875 -3.78125 C 20.625 -2.738281 21.941406 -1.332031 22.921875 0.4375 Z M 5.65625 3.265625 C 5.132812 4.128906 4.875 5.050781 4.875 6.03125 C 4.875 7.019531 5.148438 8.007812 5.703125 9 C 6.253906 9.988281 6.988281 10.726562 7.90625 11.21875 C 8.832031 11.71875 9.816406 11.960938 10.859375 11.953125 C 12.960938 11.929688 14.941406 11.40625 16.796875 10.375 C 19.078125 9.113281 20.660156 7.640625 21.546875 5.953125 C 22.535156 4.078125 22.382812 1.972656 21.09375 -0.359375 C 19.582031 -1.703125 17.878906 -2.40625 15.984375 -2.46875 C 14.085938 -2.53125 12.238281 -2.066406 10.4375 -1.078125 C 8.25 0.140625 6.65625 1.585938 5.65625 3.265625 Z M 5.65625 3.265625 "/></g></g></g><g fill="#1a2e38" fill-opacity="1"><g transform="translate(293.198683, 120.698054)"><g><path d="M 4.671875 16.828125 L 4.53125 16.34375 L 16.296875 -0.625 L 16.265625 -0.734375 L 1.125 3.78125 L 0.75 2.53125 L 19.421875 -3.03125 L 20.046875 -0.9375 L 9.6875 13.84375 L 9.71875 13.96875 L 23.28125 9.921875 L 23.65625 11.171875 Z M 4.671875 16.828125 "/></g></g></g><g clip-path="url(#30e7d4ac7a)"><path fill="#112140" d="M 187.285156 331.335938 C 107.953125 331.335938 43.335938 266.71875 43.335938 187.285156 C 43.335938 107.855469 107.953125 43.335938 187.285156 43.335938 C 266.621094 43.335938 331.238281 107.953125 331.238281 187.285156 C 331.335938 266.71875 266.71875 331.335938 187.285156 331.335938 Z M 187.285156 45.773438 C 109.21875 45.773438 45.773438 109.21875 45.773438 187.285156 C 45.773438 265.355469 109.316406 328.898438 187.285156 328.898438 C 265.257812 328.898438 328.898438 265.355469 328.898438 187.285156 C 328.898438 109.21875 265.355469 45.773438 187.285156 45.773438 Z M 187.285156 45.773438 " fill-opacity="1" fill-rule="nonzero"/></g><g clip-path="url(#eee19d04e8)"><path fill="#112241" d="M 252.175781 259.242188 L 122.679688 259.242188 C 120.128906 259.242188 117.851562 260.953125 117.140625 263.402344 L 116.222656 266.566406 L 258.632812 266.566406 L 257.714844 263.402344 C 257.003906 260.953125 254.726562 259.242188 252.175781 259.242188 Z M 252.175781 259.242188 " fill-opacity="1" fill-rule="nonzero"/></g><path fill="#112241" d="M 183.085938 126.738281 L 191.769531 126.738281 L 191.769531 131.289062 L 183.085938 131.289062 Z M 183.085938 126.738281 " fill-opacity="1" fill-rule="nonzero"/><g clip-path="url(#06b09f815c)"><path fill="#112241" d="M 192.519531 124.035156 C 194.675781 121.664062 195.964844 117.992188 195.964844 114.0625 C 195.964844 107.171875 192.132812 101.566406 187.425781 101.566406 C 182.71875 101.566406 178.886719 107.171875 178.886719 114.0625 C 178.886719 117.992188 180.175781 121.660156 182.332031 124.035156 Z M 192.519531 124.035156 " fill-opacity="1" fill-rule="nonzero"/></g><path fill="#112241" d="M 183.085938 133.992188 L 191.769531 133.992188 L 191.769531 238.609375 L 183.085938 238.609375 Z M 183.085938 133.992188 " fill-opacity="1" fill-rule="nonzero"/><path fill="#112241" d="M 151.542969 249.253906 C 149.03125 249.253906 146.789062 250.9375 146.085938 253.34375 L 145.15625 256.539062 L 229.699219 256.539062 L 228.765625 253.34375 C 228.066406 250.9375 225.820312 249.253906 223.3125 249.253906 Z M 151.542969 249.253906 " fill-opacity="1" fill-rule="nonzero"/><path fill="#112241" d="M 181.734375 241.316406 L 166.523438 241.316406 L 166.523438 246.550781 L 208.328125 246.550781 L 208.328125 241.316406 Z M 181.734375 241.316406 " fill-opacity="1" fill-rule="nonzero"/><path fill="#112241" d="M 162.683594 202.691406 L 156.09375 202.691406 L 141.726562 146.445312 C 142.910156 146.65625 144.097656 146.777344 145.261719 146.777344 C 150.757812 146.777344 154.988281 145.140625 159.082031 143.554688 C 162.332031 142.296875 165.402344 141.105469 168.675781 141 C 173.492188 140.839844 177.867188 142.972656 180.378906 144.515625 L 180.378906 133.570312 C 178.375 132.886719 172.339844 131.089844 166.941406 132.015625 C 164.125 132.496094 161.398438 133.960938 158.511719 135.511719 C 154.480469 137.671875 150.316406 139.910156 145.261719 139.910156 C 139.425781 139.910156 136.191406 137.871094 134.601562 136.382812 C 134.050781 137.003906 133.410156 137.550781 132.671875 137.972656 C 132.027344 138.34375 131.199219 138.117188 130.828125 137.46875 C 130.457031 136.824219 130.679688 135.996094 131.328125 135.625 C 132.886719 134.730469 133.859375 133.058594 133.859375 131.265625 C 133.859375 128.5 131.609375 126.25 128.839844 126.25 C 126.074219 126.25 123.824219 128.5 123.824219 131.265625 C 123.824219 133.925781 125.371094 136.71875 127.808594 139.191406 L 111.589844 202.691406 L 105 202.691406 C 106.058594 212.539062 118.589844 220.335938 133.84375 220.335938 C 149.09375 220.335938 161.628906 212.539062 162.683594 202.691406 Z M 153.285156 202.691406 L 135.195312 202.691406 L 135.195312 144.320312 C 136.339844 144.863281 137.523438 145.328125 138.730469 145.703125 Z M 132.488281 142.871094 L 132.488281 202.691406 L 114.398438 202.691406 L 130.105469 141.207031 C 130.859375 141.792969 131.648438 142.355469 132.488281 142.871094 Z M 132.488281 142.871094 " fill-opacity="1" fill-rule="nonzero"/><g clip-path="url(#6c868fb15e)"><path fill="#112241" d="M 263.265625 202.691406 L 247.042969 139.191406 C 249.484375 136.71875 251.027344 133.925781 251.027344 131.269531 C 251.027344 128.5 248.777344 126.25 246.011719 126.25 C 243.246094 126.25 240.996094 128.5 240.996094 131.269531 C 240.996094 133.0625 241.964844 134.734375 243.523438 135.625 C 244.171875 135.996094 244.394531 136.824219 244.027344 137.472656 C 243.65625 138.121094 242.828125 138.34375 242.179688 137.972656 C 241.441406 137.550781 240.800781 137.003906 240.253906 136.382812 C 238.664062 137.871094 235.425781 139.910156 229.589844 139.910156 C 224.535156 139.910156 220.371094 137.675781 216.34375 135.511719 C 213.453125 133.960938 210.726562 132.496094 207.914062 132.015625 C 202.515625 131.089844 196.480469 132.890625 194.472656 133.570312 L 194.472656 144.519531 C 196.984375 142.984375 201.359375 140.851562 206.179688 141 C 209.449219 141.105469 212.519531 142.296875 215.773438 143.554688 C 219.863281 145.140625 224.097656 146.777344 229.589844 146.777344 C 230.757812 146.777344 231.941406 146.65625 233.125 146.445312 L 218.757812 202.691406 L 212.167969 202.691406 C 213.226562 212.539062 225.757812 220.335938 241.011719 220.335938 C 256.261719 220.335938 268.792969 212.539062 269.851562 202.691406 Z M 244.75 141.207031 L 260.457031 202.691406 L 242.363281 202.691406 L 242.363281 142.871094 C 243.203125 142.355469 243.996094 141.792969 244.75 141.207031 Z M 239.660156 144.320312 L 239.660156 202.691406 L 221.566406 202.691406 L 236.125 145.703125 C 237.332031 145.328125 238.515625 144.863281 239.660156 144.320312 Z M 239.660156 144.320312 " fill-opacity="1" fill-rule="nonzero"/></g><g fill="#000000" fill-opacity="1"><g transform="translate(75.467907, 260.610758)"><g><path d="M 0.5625 1.46875 L 11.359375 -2.71875 L 12.5625 0.359375 C 13.050781 1.640625 13.226562 2.910156 13.09375 4.171875 C 13.03125 4.828125 12.863281 5.441406 12.59375 6.015625 C 12.320312 6.597656 11.90625 7.140625 11.34375 7.640625 C 10.789062 8.148438 10.109375 8.5625 9.296875 8.875 C 8.148438 9.3125 7.066406 9.398438 6.046875 9.140625 C 4.179688 8.640625 2.789062 7.210938 1.875 4.859375 Z M 2.296875 4.3125 C 2.835938 5.6875 3.675781 6.640625 4.8125 7.171875 C 5.957031 7.703125 7.316406 7.660156 8.890625 7.046875 C 10.109375 6.578125 11.019531 5.84375 11.625 4.84375 C 12.238281 3.84375 12.476562 2.753906 12.34375 1.578125 C 11.976562 0.640625 11.546875 -0.140625 11.046875 -0.765625 L 1.890625 2.796875 C 1.921875 3.171875 2.054688 3.675781 2.296875 4.3125 Z M 2.296875 4.3125 "/></g></g></g><g fill="#000000" fill-opacity="1"><g transform="translate(83.061946, 278.504068)"><g><path d="M 6.4375 0.03125 L 1.65625 2.828125 L 0.796875 1.359375 L 10.796875 -4.484375 L 12.703125 -1.234375 C 13.296875 -0.210938 13.550781 0.753906 13.46875 1.671875 C 13.394531 2.585938 12.988281 3.257812 12.25 3.6875 C 11.519531 4.125 10.785156 4.207031 10.046875 3.9375 C 9.316406 3.675781 8.613281 3.144531 7.9375 2.34375 L 5.40625 9.25 L 4.171875 7.625 L 7.125 1.203125 Z M 6.875 -0.21875 L 7.4375 0.75 C 8.5 2.5625 9.742188 3.046875 11.171875 2.203125 C 11.421875 2.066406 11.65625 1.851562 11.875 1.5625 C 12.375 0.945312 12.503906 0.207031 12.265625 -0.65625 C 11.859375 -1.34375 11.378906 -1.96875 10.828125 -2.53125 Z M 6.875 -0.21875 "/></g></g></g><g fill="#000000" fill-opacity="1"><g transform="translate(92.698437, 293.981711)"><g><path d="M 13.453125 -2.21875 C 14.410156 -1.050781 14.816406 0.226562 14.671875 1.625 C 14.535156 3.019531 13.785156 4.28125 12.421875 5.40625 C 11.535156 6.132812 10.640625 6.617188 9.734375 6.859375 C 8.828125 7.097656 7.988281 7.125 7.21875 6.9375 C 5.71875 6.539062 4.488281 5.757812 3.53125 4.59375 C 2.570312 3.4375 2.164062 2.15625 2.3125 0.75 C 2.46875 -0.644531 3.226562 -1.90625 4.59375 -3.03125 C 5.3125 -3.613281 6.035156 -4.039062 6.765625 -4.3125 C 7.503906 -4.582031 8.1875 -4.695312 8.8125 -4.65625 C 9.445312 -4.625 10.066406 -4.488281 10.671875 -4.25 C 11.753906 -3.832031 12.679688 -3.15625 13.453125 -2.21875 Z M 3.671875 1.296875 C 3.453125 1.859375 3.394531 2.425781 3.5 3 C 3.601562 3.570312 3.867188 4.117188 4.296875 4.640625 C 4.722656 5.160156 5.234375 5.515625 5.828125 5.703125 C 6.429688 5.898438 7.039062 5.929688 7.65625 5.796875 C 8.875 5.554688 9.96875 5.035156 10.9375 4.234375 C 12.132812 3.253906 12.894531 2.222656 13.21875 1.140625 C 13.601562 -0.0664062 13.289062 -1.28125 12.28125 -2.5 C 11.257812 -3.113281 10.191406 -3.335938 9.078125 -3.171875 C 7.960938 -3.015625 6.929688 -2.546875 5.984375 -1.765625 C 4.835938 -0.816406 4.066406 0.203125 3.671875 1.296875 Z M 3.671875 1.296875 "/></g></g></g><g fill="#000000" fill-opacity="1"><g transform="translate(105.694997, 308.608009)"><g><path d="M 10.203125 -6.3125 L 2.328125 2.171875 L 1.15625 1.078125 L 9.03125 -7.40625 Z M 10.203125 -6.3125 "/></g></g></g><g fill="#000000" fill-opacity="1"><g transform="translate(114.350569, 316.290853)"><g><path d="M 4.46875 3.265625 L 3.09375 2.265625 L 9.421875 -6.40625 C 9.160156 -6.71875 8.867188 -6.988281 8.546875 -7.21875 L 6.328125 -8.171875 L 6.96875 -9.25 L 14.234375 -3.9375 L 13.4375 -2.984375 L 11.84375 -4.8125 C 11.519531 -5.050781 11.171875 -5.25 10.796875 -5.40625 Z M 4.46875 3.265625 "/></g></g></g><g fill="#000000" fill-opacity="1"><g transform="translate(127.699842, 325.37968)"><g/></g></g><g fill="#000000" fill-opacity="1"><g transform="translate(137.590441, 330.774046)"><g><path d="M 1.46875 0.59375 L 5.828125 -10.125 L 8.875 -8.875 C 10.144531 -8.363281 11.1875 -7.628906 12 -6.671875 C 12.4375 -6.171875 12.773438 -5.625 13.015625 -5.03125 C 13.253906 -4.4375 13.363281 -3.765625 13.34375 -3.015625 C 13.320312 -2.265625 13.148438 -1.488281 12.828125 -0.6875 C 12.359375 0.445312 11.6875 1.296875 10.8125 1.859375 C 9.164062 2.878906 7.164062 2.910156 4.8125 1.953125 Z M 4.71875 1.28125 C 6.09375 1.84375 7.363281 1.882812 8.53125 1.40625 C 9.695312 0.9375 10.597656 -0.078125 11.234375 -1.640625 C 11.722656 -2.847656 11.8125 -4.015625 11.5 -5.140625 C 11.1875 -6.273438 10.5625 -7.191406 9.625 -7.890625 C 8.6875 -8.265625 7.820312 -8.488281 7.03125 -8.5625 L 3.328125 0.546875 C 3.628906 0.785156 4.09375 1.03125 4.71875 1.28125 Z M 4.71875 1.28125 "/></g></g></g><g fill="#000000" fill-opacity="1"><g transform="translate(155.794225, 337.489025)"><g><path d="M 1.53125 0.359375 L 4.203125 -10.90625 L 11.015625 -9.28125 L 10.578125 -8.1875 L 7.53125 -9.453125 C 6.976562 -9.585938 6.34375 -9.640625 5.625 -9.609375 L 4.65625 -5.484375 L 8.453125 -4.578125 L 8.296875 -3.921875 L 4.5 -4.828125 L 3.3125 0.140625 L 8.71875 0.859375 L 8.28125 1.96875 Z M 1.53125 0.359375 "/></g></g></g><g fill="#000000" fill-opacity="1"><g transform="translate(172.100635, 340.777531)"><g/></g></g><g fill="#000000" fill-opacity="1"><g transform="translate(183.208791, 341.795365)"><g><path d="M 1.578125 0 L 1.609375 -11.578125 L 3.3125 -11.5625 L 3.28125 -0.921875 C 4 -0.710938 4.570312 -0.609375 5 -0.609375 L 8.171875 -1.140625 L 7.953125 0.03125 Z M 1.578125 0 "/></g></g></g><g fill="#000000" fill-opacity="1"><g transform="translate(198.680118, 341.437292)"><g><path d="M 0.171875 -0.03125 L 3.6875 -12.5 L 3.9375 -12.53125 L 10.71875 -1.5 L 8.84375 -1.234375 L 7.09375 -4.15625 L 1.953125 -3.4375 L 1.109375 -0.15625 Z M 2.109375 -4.15625 L 6.71875 -4.796875 L 3.65625 -10.0625 Z M 2.109375 -4.15625 "/></g></g></g><g fill="#000000" fill-opacity="1"><g transform="translate(216.247723, 338.35781)"><g/></g></g><g fill="#000000" fill-opacity="1"><g transform="translate(226.948223, 335.21696)"><g><path d="M 0.71875 -7.15625 L 4.15625 -8.515625 L 4.390625 -7.890625 L 0.953125 -6.53125 L 3.046875 -1.1875 L 1.46875 -0.578125 L -2.75 -11.359375 L 3.609375 -13.84375 L 4.03125 -12.75 L 0.828125 -12.078125 C 0.285156 -11.859375 -0.265625 -11.53125 -0.828125 -11.09375 Z M 0.71875 -7.15625 "/></g></g></g><g fill="#000000" fill-opacity="1"><g transform="translate(241.108724, 329.246812)"><g><path d="M 0.15625 -0.078125 L -1.140625 -12.96875 L -0.9375 -13.09375 L 9.421875 -5.328125 L 7.765625 -4.390625 L 5.078125 -6.484375 L 0.546875 -3.921875 L 0.984375 -0.546875 Z M 0.453125 -4.625 L 4.5 -6.921875 L -0.296875 -10.71875 Z M 0.453125 -4.625 "/></g></g></g><g fill="#000000" fill-opacity="1"><g transform="translate(256.706697, 319.949938)"><g><path d="M 4.234375 -7.046875 L 1.625 -16.3125 L 3.015625 -17.453125 L 10.859375 -8.90625 L 9.46875 -7.765625 L 2.796875 -15.15625 L 2.75 -15.125 L 5.65625 -4.640625 L 5.453125 -4.484375 L -3.9375 -9.125 L -4 -9.0625 L 1.703125 -1.390625 L 1.109375 -0.90625 L -5.734375 -10.265625 L -4.484375 -11.296875 Z M 4.234375 -7.046875 "/></g></g></g><g fill="#000000" fill-opacity="1"><g transform="translate(273.52234, 304.994926)"><g><path d="M -6.421875 -10.15625 L 2.140625 -2.359375 L 1.0625 -1.171875 L -7.5 -8.96875 Z M -6.421875 -10.15625 "/></g></g></g><g fill="#000000" fill-opacity="1"><g transform="translate(281.089789, 296.269686)"><g><path d="M 0.921875 -1.28125 L -8.46875 -8.0625 L -7.46875 -9.4375 L 1.15625 -3.203125 C 1.75 -3.660156 2.171875 -4.066406 2.421875 -4.421875 L 3.828125 -7.3125 L 4.65625 -6.453125 Z M 0.921875 -1.28125 "/></g></g></g><g fill="#000000" fill-opacity="1"><g transform="translate(289.734943, 283.519679)"><g><path d="M 0.75 -1.390625 L -9.4375 -6.890625 L -8.625 -8.390625 L 0.734375 -3.328125 C 1.253906 -3.867188 1.617188 -4.328125 1.828125 -4.703125 L 2.84375 -7.75 L 3.78125 -7 Z M 0.75 -1.390625 "/></g></g></g><g fill="#000000" fill-opacity="1"><g transform="translate(296.686447, 269.73216)"><g><path d="M 0.546875 -1.484375 L -10.296875 -5.546875 L -7.84375 -12.09375 L -6.796875 -11.53125 L -8.4375 -8.65625 C -8.644531 -8.125 -8.773438 -7.503906 -8.828125 -6.796875 L -4.859375 -5.3125 L -3.484375 -8.953125 L -2.859375 -8.71875 L -4.234375 -5.078125 L 0.5625 -3.28125 L 1.953125 -8.546875 L 2.984375 -7.96875 Z M 0.546875 -1.484375 "/></g></g></g></svg>